<svg viewBox="0 0 96 96" xmlns="http://www.w3.org/2000/svg" xmlns:xlink="http://www.w3.org/1999/xlink" id="Icons_Safe" overflow="hidden"><rect x="20" y="79" width="8" height="6" stroke="none" stroke-width="1" stroke-linecap="butt" fill="#83C167" fill-opacity="1"/><rect x="68" y="79" width="8" height="6" stroke="none" stroke-width="1" stroke-linecap="butt" fill="#83C167" fill-opacity="1"/><path d="M78 11 18 11C15.8 11 14 12.8 14 15L14 75C14 77.2 15.8 79 18 79L78 79C80.2 79 82 77.2 82 75L82 15C82 12.8 80.2 11 78 11ZM76 73 20 73 20 17 76 17 76 73Z" stroke="none" stroke-width="1" stroke-linecap="butt" fill="#83C167" fill-opacity="1"/><path d="M24 21 24 69 72 69 72 21 24 21ZM38 55C32.5 55 28 50.5 28 45 28 39.5 32.5 35 38 35 43.5 35 48 39.5 48 45 48 50.5 43.5 55 38 55ZM68 53C68 54.1 67.1 55 66 55 64.9 55 64 54.1 64 53L64 37C64 35.9 64.9 35 66 35 67.1 35 68 35.9 68 37L68 53Z" stroke="none" stroke-width="1" stroke-linecap="butt" fill="#83C167" fill-opacity="1"/><path d="M46 43 43.6 43C43 41.3 41.7 40 40 39.4L40 37 36 37 36 39.4C34.3 40 33 41.4 32.4 43L30 43 30 47 32.4 47C33 48.7 34.3 50 36 50.6L36 53 40 53 40 50.6C41.7 50 43 48.6 43.6 47L46 47 46 43Z" stroke="none" stroke-width="1" stroke-linecap="butt" fill="#83C167" fill-opacity="1"/></svg>