<svg viewBox="0 0 96 96" xmlns="http://www.w3.org/2000/svg" xmlns:xlink="http://www.w3.org/1999/xlink" id="Icons_Target" overflow="hidden"><path d="M48 56C43.5817 56 40 52.4183 40 48 40 43.5817 43.5817 40 48 40 52.4183 40 56 43.5817 56 48 56 52.4183 52.4183 56 48 56ZM48 44C45.7909 44 44 45.7909 44 48 44 50.2091 45.7909 52 48 52 50.2091 52 52 50.2091 52 48 52 45.7909 50.2091 44 48 44Z" stroke="none" stroke-width="1" stroke-linecap="butt" fill="#FC6255" fill-opacity="1"/><path d="M83 46C81.9514 28.227 67.773 14.0486 50 13L50 7 46 7 46 13C28.227 14.0486 14.0486 28.227 13 46L7 46 7 50 13 50C14.0486 67.773 28.227 81.9514 46 83L46 89 50 89 50 83C67.773 81.9514 81.9514 67.773 83 50L89 50 89 46ZM68.16 50C67.1991 59.6034 59.6034 67.199 50 68.16L50 60 46 60 46 68.16C36.3966 67.1991 28.801 59.6034 27.84 50L36 50 36 46 27.84 46C28.801 36.3966 36.3966 28.801 46 27.84L46 36 50 36 50 27.84C59.6034 28.801 67.199 36.3966 68.16 46L60 46 60 50ZM46 19 46 23.83C34.1894 24.822 24.8173 34.1898 23.82 46L19 46C20.0284 31.5357 31.5357 20.0284 46 19ZM19 50 23.83 50C24.822 61.8106 34.1898 71.1827 46 72.18L46 77C31.5357 75.9716 20.0284 64.4643 19 50ZM50 77 50 72.18C61.8141 71.1873 71.1873 61.8141 72.18 50L77 50C75.9716 64.4643 64.4643 75.9716 50 77ZM72.18 46C71.1873 34.1859 61.8141 24.8127 50 23.82L50 19C64.4643 20.0284 75.9716 31.5357 77 46Z" stroke="none" stroke-width="1" stroke-linecap="butt" fill="#FC6255" fill-opacity="1"/></svg>