<svg viewBox="0 0 96 96" xmlns="http://www.w3.org/2000/svg" xmlns:xlink="http://www.w3.org/1999/xlink" id="Icons_Scissors" overflow="hidden"><path d="M76 47C72.7 47 70 44.3 70 41 70 37.7 72.7 35 76 35 79.3 35 82 37.7 82 41 82 44.3 79.3 47 76 47ZM52.7 25.6C49.6 24.4 48.2 20.9 49.4 17.8 50.6 14.7 54.1 13.3 57.2 14.5 60.3 15.7 61.7 19.2 60.5 22.3 59.3 25.3 55.8 26.8 52.7 25.6ZM50 49C48.3 49 47 47.7 47 46 47 44.3 48.3 43 50 43 51.7 43 53 44.3 53 46 53 47.7 51.7 49 50 49ZM76 29C73.4 29 71 29.8 69 31.2L59.3 36.6 64.7 26.9C65.2 26.1 65.7 25.3 66.1 24.4 68.6 18.3 65.6 11.3 59.5 8.8 53.4 6.3 46.4 9.3 43.9 15.4 41.4 21.5 44.4 28.5 50.5 31 51.7 31.5 52.9 31.7 54.1 31.8L45.1 40.8 42.9 45.7 14 62 8 72 37 59 24 88 34 82 50.1 53.2 55 51 64 42C64.5 48.2 69.7 53 76 53 82.6 53 88 47.6 88 41 88 34.4 82.6 29 76 29Z" stroke="none" stroke-width="1" stroke-linecap="butt" fill="#58C4DD" fill-opacity="1"/></svg>