<?xml version="1.0" encoding="utf-8"?>
<!-- Generator: Adobe Illustrator 21.1.0, SVG Export Plug-In . SVG Version: 6.00 Build 0)  -->
<svg version="1.1" id="math_elements" xmlns="http://www.w3.org/2000/svg" xmlns:xlink="http://www.w3.org/1999/xlink" x="0px"
	 y="0px" viewBox="0 0 1366 768" style="enable-background:new 0 0 1366 768;" xml:space="preserve">
<style type="text/css">
	.st0{fill:#434343;}
	.st1{fill:#363636;}
	.st2{fill:#232323;}
	.st3{fill:#323232;}
	.st4{fill:#404040;}
	.st5{fill:#454545;}
	.st6{fill:#2A2A2A;}
	.st7{fill:#323232;}
	.st8{fill:#373737;}
	.st9{fill:#5A5A5A;}
	.st10{fill:#424242;}
	.st11{fill:#171717;}
	.st12{fill:#535353;}
	.st13{fill:#191919;}
	.st14{fill:#555555;}
	.st15{fill:#353535;}
	.st16{fill:#414141;}
	.st17{fill:#525252;}
	.st18{fill:#3A3A3A;}
	.st19{fill:#101010;}
	.st20{fill:#353535;}
	.st21{fill:#171717;}
	.st22{fill:#292929;}
	.st23{fill:#404040;}
	.st24{fill:#202020;}
	.st25{fill:#1C1C1C;}
	.st26{fill:#191919;}
	.st27{fill:#454545;}
	.st28{fill:#444444;}
	.st29{fill:#3D3D3D;}
	.st30{fill:#414141;}
</style>
<g>
	<g>
		<path id="g0-50_1_" class="st0" d="M334,318v-9.2H104.2v-35.1h-9.2V318L334,318L334,318z"/>
		<polygon points="344,328 85.1,328 85.1,263.8 114.2,263.8 114.2,298.8 344,298.8 		"/>
	</g>
</g>
<g>
	<g>
		<path id="g0-52_1_" class="st1" d="M573,318v-44.2h-9.2v35.1H334v9.2L573,318L573,318z"/>
		<polygon points="583,328 324,328 324,298.8 553.8,298.8 553.8,263.8 583,263.8 		"/>
	</g>
</g>
<g>
	<g>
		<path id="g0-50_2_" class="st2" d="M1029,318v-9.2H799.2v-35.1h-9.2V318L1029,318L1029,318z"/>
		<polygon points="1039,328 780.1,328 780.1,263.8 809.2,263.8 809.2,298.8 1039,298.8 		"/>
	</g>
</g>
<g>
	<g>
		<path id="g0-52_2_" class="st3" d="M1268,318v-44.2h-9.2v35.1H1029v9.2L1268,318L1268,318z"/>
		<polygon points="1278,328 1019,328 1019,298.8 1248.8,298.8 1248.8,263.8 1278,263.8 		"/>
	</g>
</g>
<g>
	<g>
		<path id="g0-50_3_" class="st4" d="M682.5,533v12.1h483.2v46.3h19.3V533H682.5z"/>
		<polygon points="1215,621.3 1135.7,621.3 1135.7,575.1 652.5,575.1 652.5,503 1215,503 		"/>
	</g>
</g>
<g>
	<g>
		<path id="g0-52_3_" class="st5" d="M180.1,533v58.3h19.3v-46.3h483.2V533H180.1z"/>
		<polygon points="229.3,621.3 150.1,621.3 150.1,503 712.5,503 712.5,575.1 229.3,575.1 		"/>
	</g>
</g>
<g>
	<g>
		<path id="g0-50_4_" class="st6" d="M685,380v-9.2H350.4v-35.1h-13.3V380L685,380L685,380z"/>
		<polygon points="705,400 317.1,400 317.1,315.8 370.4,315.8 370.4,350.8 705,350.8 		"/>
	</g>
</g>
<g>
	<g>
		<path id="g0-52_4_" class="st7" d="M1033,380v-44.2h-13.3v35.1H685v9.2L1033,380L1033,380z"/>
		<polygon points="1053,400 665,400 665,350.8 999.7,350.8 999.7,315.8 1053,315.8 		"/>
	</g>
</g>
<g>
	<path id="g0-49_2_" class="st8" d="M323.3,552.7c4.4-1.2,4.8-1.3,3.6-5.5c-14.7-8.2-19-24.3-20.5-30.2l-5.7,1.5
		c1,3.7,3.8,14.4,11.1,22.7l-94.7,25.1c-6.6,1.7-8.9,1.8-13.3-14.7l-1.6-5.8l-5.7,1.5c2.2,6.3,6.5,22.2,8.4,29.5
		c1.9,7.3,6.2,23.2,7.3,29.8l5.7-1.5l-1.6-5.8c-4.4-16.4-2.5-17.5,4.3-19.3L323.3,552.7z"/>
</g>
<g id="page1_3_">
	<g>
		<path id="g1-0_2_" class="st9" d="M681.5,472.2c-1,2.9-2,6.1,1.5,7.2c3.5,1.1,4.5-2,5.4-4.9l30.2-93.7c1-2.9,2-6.1-1.5-7.2
			s-4.5,2-5.4,4.9L681.5,472.2z"/>
	</g>
	<g>
		<path id="g0-49_3_" class="st10" d="M729.4,566.6c4.2,1.3,4.5,1.5,5.8-2.5c-7.6-14.3-2.7-29.6-0.9-35.1l-5.4-1.7
			c-1.1,3.5-4.4,13.7-2.8,24.1l-89.7-29c-6.2-2-8.1-3.2-3.1-18.8l1.8-5.5l-5.4-1.7c-1.4,6.2-6.3,21.3-8.5,28.2s-7.1,22-9.6,27.9
			l5.4,1.7l1.8-5.5c5-15.6,7.1-15.5,13.5-13.4L729.4,566.6z"/>
	</g>
</g>
<g id="page1_5_">
	<g>
		<path id="g1-0_3_" d="M679.4,240.5c0,3,0,6.2,3.5,6.2s3.5-3.2,3.5-6.2v-96c0-3,0-6.2-3.5-6.2s-3.5,3.2-3.5,6.2V240.5z"/>
	</g>
	<g>
		<path id="g0-49_5_" d="M744.8,318.2c4.8,0,5.2,0,5.2-4.6c-12.7-12.3-12.7-29.9-12.7-36.2H731c0,4,0,15.7,5.2,26.1H633.1
			c-7.2,0-9.6-0.6-9.6-18.5v-6.4h-6.2c0.6,7,0.6,24.3,0.6,32.2s0,25.3-0.6,32.2h6.2v-6.4c0-17.9,2.2-18.5,9.6-18.5L744.8,318.2
			L744.8,318.2z"/>
	</g>
</g>
<g id="page1_6_">
	<g>
		<path id="g0-48_3_" class="st11" d="M743.8,396.4c-1.9-23.5-5.2-46.8-17.3-67.7c-15.8-27.1-40.2-29.9-52.5-28.9
			c-17.6,1.4-38.4,10.8-48.3,39c-7.8,21-7.4,44-5.5,67.5c1.8,22,5.1,48.3,18.9,69.7c14.5,22.8,36.4,26.9,50.8,25.8
			c15.8-1.3,37.7-9.2,48.3-38.1C746,442.6,745.6,419.6,743.8,396.4z M689.4,495.3c-11.4,0.9-29.4-5-36.9-32.8
			c-4.6-17.4-6.8-44.4-8.2-61.7c-1.5-18.8-3.1-38.2-2-54.2c2.8-35.4,24.6-39.8,31.9-40.4c9.7-0.8,29.5,3,37.4,31.6
			c4.3,16.2,6,38.5,7.5,57c1.8,22,3.4,42,1.7,61C718.6,484.1,702.6,494.2,689.4,495.3z"/>
	</g>
</g>
<g>
	<path id="g0-49_6_" class="st5" d="M354.5,332.4c-0.5-2.4-0.5-2.5-2.7-2.1c-4.9,7.4-13.5,9.1-16.6,9.7l0.6,3c2-0.4,7.7-1.5,12.3-5
		l9.8,50.7c0.7,3.5,0.6,4.8-8.2,6.5l-3.1,0.6l0.6,3c3.4-1,11.9-2.6,15.8-3.4c3.9-0.8,12.4-2.4,15.9-2.8l-0.6-3l-3.1,0.6
		c-8.8,1.7-9.3,0.7-10-2.9L354.5,332.4z"/>
</g>
<g id="page1_7_">
	<g>
		<path id="g1-0_4_" class="st12" d="M626,385.6c1.4,0.4,2.9,0.8,3.4-0.8c0.5-1.7-1-2.1-2.4-2.5l-44.6-12.9
			c-1.4-0.4-2.9-0.8-3.4,0.8c-0.5,1.7,1,2.1,2.4,2.5L626,385.6z"/>
	</g>
	<g>
		<path id="g0-49_7_" class="st13" d="M669.9,361.6c0.6-2,0.6-2.1-1.3-2.7c-6.6,3.8-13.9,1.7-16.6,0.9l-0.7,2.6
			c1.7,0.5,6.5,1.9,11.4,1l-12.4,42.8c-0.9,3-1.4,3.9-8.8,1.7l-2.6-0.8l-0.7,2.6c3,0.6,10.1,2.7,13.4,3.6s10.5,3,13.3,4.1l0.7-2.6
			l-2.6-0.8c-7.4-2.2-7.4-3.1-6.5-6.2L669.9,361.6z"/>
	</g>
</g>
<g>
	<path id="g0-49_8_" class="st14" d="M899,391.6c0.9,1.1,1,1.1,2,0.2c0.2-5.2,4.1-8.7,5.5-9.9l-1.2-1.4c-0.9,0.8-3.5,3.1-4.8,6.3
		L880.4,364c-1.4-1.6-1.7-2.2,2.2-5.7l1.4-1.2l-1.2-1.4c-1.4,1.5-5.3,4.9-7,6.5s-5.6,5-7.3,6.2l1.2,1.4l1.4-1.2c4-3.5,4.5-3.1,6-1.5
		L899,391.6z"/>
</g>
<g id="page1_8_">
	<g>
		<path id="g0-48_4_" class="st15" d="M217.3,546c-1.2-9.6-3-19-8.2-27.4c-6.9-10.8-16.9-11.5-22-10.9c-7.2,0.9-15.5,5.1-19,16.8
			c-2.8,8.7-2.3,18.1-1.1,27.7c1.1,9,2.9,19.7,8.9,28.1c6.3,9,15.4,10.4,21.2,9.6c6.5-0.8,15.2-4.4,19.1-16.4
			C219,564.9,218.5,555.5,217.3,546z M196.8,587.4c-4.7,0.6-12.1-1.5-15.6-12.8c-2.2-7-3.6-18-4.4-25.1c-0.9-7.7-1.9-15.5-1.8-22.1
			c0.5-14.5,9.4-16.7,12.3-17.1c3.9-0.5,12.1,0.7,15.8,12.2c2,6.5,3.1,15.6,4.1,23.2c1.1,9,2.1,17.1,1.7,24.9
			C208.5,582.3,202.2,586.7,196.8,587.4z"/>
	</g>
</g>
<g id="page1_9_">
	<g>
		<path id="g1-0_5_" class="st14" d="M610.6,518.5c5,0,10.3,0,10.3-5.9c0-5.9-5.3-5.9-10.3-5.9H451.3c-5,0-10.3,0-10.3,5.9
			c0,5.9,5.3,5.9,10.3,5.9H610.6z"/>
	</g>
	<g>
		<path id="g0-49_9_" class="st16" d="M731.2,384.8c0-7.1,0-7.7-6.8-7.7C706.2,396,680.2,396,670.8,396v9.1c5.9,0,23.3,0,38.6-7.7
			V550c0,10.6-0.9,14.1-27.4,14.1h-9.4v9.1c10.3-0.9,35.9-0.9,47.7-0.9s37.4,0,47.7,0.9v-9.1h-9.4c-26.5,0-27.4-3.2-27.4-14.1
			L731.2,384.8L731.2,384.8z"/>
	</g>
</g>
<g id="page1_10_">
	<g>
		<path id="g0-48_5_" class="st10" d="M720.5,531.6c12.6-15.6,24.2-32,29.1-52c6.2-26-7.3-42-15.5-48.7
			c-11.7-9.5-30.1-15.9-52.7-4.2c-17.1,8.4-30.4,22.9-43,38.5c-11.8,14.6-25.2,32.8-29.2,54.1c-4.4,22.6,6.7,38,16.3,45.7
			c10.5,8.5,28.7,16.4,52.3,4.8C694.7,561.5,708,547,720.5,531.6z M628.8,560.8c-7.6-6.1-15.2-20.3-3.6-41.9
			c7.3-13.4,21.8-31.4,31.1-42.9c10.1-12.5,20.5-25.4,30.6-34.7c22.5-20.2,38.5-10.2,43.4-6.2c6.4,5.2,16.5,19.1,4.6,41.4
			c-6.9,12.5-18.9,27.3-28.8,39.6c-11.8,14.6-22.5,27.9-34.8,38.7C653.5,571,637.6,567.9,628.8,560.8z"/>
	</g>
</g>
<g>
	<path id="g0-49_10_" class="st17" d="M1017.8,508.9c-7.1-1.4-7.6-1.5-9,5.2c15.2,22,10,47.9,8.1,57.3l9.1,1.8
		c1.2-5.9,4.7-23.2,0.1-40.1l152.4,30.6c10.6,2.1,13.9,3.7,8.6,30.2l-1.9,9.4l9.1,1.8c1.2-10.5,6.3-36.1,8.7-47.8
		s7.5-37.4,10.4-47.5l-9.1-1.8l-1.9,9.4c-5.3,26.5-8.7,26.7-19.6,24.5L1017.8,508.9z"/>
</g>
<g id="page1_11_">
	<g>
		<path id="g0-48_6_" class="st18" d="M825.7,359.4c-6.8,0-13.7,0.4-20,3.4c-8.2,3.9-9.6,11-9.6,14.6c0,5.1,2.2,11.4,10.2,14.9
			c5.9,2.7,12.6,3.2,19.4,3.2c6.4,0,14.1-0.3,20.6-3.9c6.9-3.7,8.6-9.9,8.6-14.1c0-4.6-1.8-11.1-9.9-14.9
			C839.2,359.9,832.5,359.4,825.7,359.4z M853.1,377.5c0,3.3-2.1,8.4-10.4,9.9c-5.1,0.9-13,0.9-18.1,0.9c-5.5,0-11.1,0-15.8-0.7
			c-10.2-1.6-11-8-11-10.2c0-2.8,1.5-8.5,10-10.1c4.8-0.9,11.3-0.9,16.7-0.9c6.4,0,12.2,0,17.7,0.9
			C850.6,368.8,853.1,373.6,853.1,377.5z"/>
	</g>
</g>
<g id="page1_4_">
	<g>
		<path id="g0-48_2_" class="st19" d="M681,239.9c-10.8,0-21.7,0.7-31.7,5.4c-13,6.2-15.2,17.4-15.2,23.1c0,8.1,3.5,18,16.1,23.6
			c9.4,4.3,19.9,5,30.8,5c10.2,0,22.4-0.5,32.7-6.1c11-5.8,13.7-15.7,13.7-22.4c0-7.3-2.8-17.6-15.7-23.6
			C702.3,240.6,691.8,239.9,681,239.9z M724.4,268.5c0,5.3-3.4,13.3-16.4,15.7c-8.1,1.5-20.6,1.5-28.6,1.5c-8.7,0-17.6,0-25-1.1
			c-16.1-2.6-17.4-12.7-17.4-16.1c0-4.5,2.4-13.4,15.9-16c7.6-1.4,17.9-1.4,26.4-1.4c10.2,0,19.4,0,28.1,1.5
			C720.4,254.7,724.4,262.4,724.4,268.5z"/>
	</g>
</g>
<g id="page1_12_">
	<g>
		<path id="g1-0_6_" class="st20" d="M580.7,382.7c7,0,14.5,0,14.5-8.3s-7.5-8.3-14.5-8.3H356.5c-7,0-14.5,0-14.5,8.3
			s7.5,8.3,14.5,8.3H580.7z"/>
	</g>
	<g>
		<path id="g0-49_11_" class="st12" d="M698.7,217.8c0-9.9,0-10.8-9.5-10.8c-25.7,26.5-62.2,26.5-75.4,26.5v12.8
			c8.3,0,32.7,0,54.3-10.8v214.6c0,14.9-1.2,19.9-38.5,19.9h-13.3V483c14.5-1.2,50.6-1.2,67.1-1.2s52.6,0,67.1,1.2v-12.8h-13.3
			c-37.3,0-38.5-4.6-38.5-19.9L698.7,217.8L698.7,217.8z"/>
	</g>
</g>
<g>
	<path id="g0-49_4_" class="st21" d="M500.9,385c2.9,0.2,3.1,0.2,3.4-2.6c-7.2-8.1-6.4-18.7-6.1-22.6l-3.8-0.3
		c-0.2,2.4-0.7,9.6,2,16.1l-62.7-4.6c-4.4-0.3-5.8-0.8-5-11.7l0.3-3.9l-3.8-0.3c0.1,4.3-0.7,14.8-1.1,19.6s-1.1,15.4-1.8,19.6
		l3.8,0.3l0.3-3.9c0.8-10.9,2.2-11.2,6.6-10.8L500.9,385z"/>
</g>
<g id="page1_13_">
	<g>
		<path id="g1-0_7_" class="st20" d="M986.1,369.8c1.9,0,3.8,0,3.8-2.2s-2-2.2-3.8-2.2h-59.3c-1.9,0-3.8,0-3.8,2.2s2,2.2,3.8,2.2
			H986.1z"/>
	</g>
	<g>
		<path id="g0-49_12_" class="st22" d="M1031.3,324.9c0-2.6,0-2.8-2.5-2.8c-6.8,7-16.4,7-19.9,7v3.4c2.2,0,8.7,0,14.3-2.8v56.7
			c0,3.9-0.3,5.3-10.2,5.3h-3.5v3.4c3.8-0.3,13.4-0.3,17.7-0.3s13.9,0,17.7,0.3v-3.4h-3.5c-9.9,0-10.2-1.2-10.2-5.3L1031.3,324.9
			L1031.3,324.9z"/>
	</g>
</g>
<g id="page1_14_">
	<g>
		<path id="g0-48_7_" class="st23" d="M731.1,306.2c5.2-19.3,9.3-38.9,5.7-59c-4.8-26.2-23.5-35.4-33.7-38.1
			c-14.5-3.9-33.8-2.4-49.7,17.3c-12.2,14.5-18.5,33-23.8,52.3c-4.9,18.1-9.8,40-4.9,61c5.1,22.3,21.4,31.9,33.2,35.1
			c13,3.5,32.7,3.4,49.5-16.6C719.7,343.7,726,325.2,731.1,306.2z M659.4,369.5c-9.4-2.5-22-12.4-20.1-36.8
			c1.3-15.2,7.3-37.4,11.1-51.6c4.2-15.4,8.5-31.3,14-43.8c12.4-27.4,31-24.7,37.1-23.1c8,2.2,22.7,10.8,20.8,35.9
			c-1.2,14.2-6.2,32.5-10.3,47.7c-4.9,18.1-9.3,34.5-16.2,49.2C685.9,369,670.2,372.5,659.4,369.5z"/>
	</g>
</g>
<g id="page1_15_">
	<g>
		<path id="g0-48_8_" class="st21" d="M687.3,269.5c15.1-1,30.2-3,43.7-10.6c17.6-9.9,19.5-25.6,19-33.6
			c-0.8-11.3-6.6-24.8-24.7-31.4c-13.5-5.2-28.3-5.1-43.4-4.1c-14.2,1-31.1,2.9-45,11.6c-14.8,9.2-17.6,23.2-17,32.5
			c0.7,10.2,5.7,24.3,24.2,31.4C657.6,270.6,672.4,270.5,687.3,269.5z M624.1,233.8c-0.5-7.4,3.5-18.9,21.4-23.5
			c11.2-2.9,28.6-4,39.7-4.8c12.1-0.8,24.6-1.7,34.9-0.9c22.7,2.1,25.4,16.1,25.7,20.8c0.4,6.2-2.1,18.9-20.6,23.8
			c-10.5,2.6-24.8,3.6-36.7,4.4c-14.2,1-27,1.9-39.3,0.6C631.1,252.6,624.7,242.3,624.1,233.8z"/>
	</g>
</g>
<g>
	<path id="g0-49_13_" class="st17" d="M697.3,351.5c1.8,5.4,2,5.8,7.1,4.1c9-19,28.8-25.7,35.9-28.1l-2.3-6.9
		c-4.5,1.5-17.7,6-27.4,15.7l-39.2-116.1c-2.7-8.1-3-11,17.2-17.8l7.2-2.4l-2.3-6.9c-7.6,3.3-27.1,9.9-36.1,12.9
		c-9,3-28.5,9.6-36.5,11.6l2.3,6.9l7.2-2.4c20.2-6.8,21.7-4.6,24.5,3.7L697.3,351.5z"/>
</g>
<g id="page1_16_">
	<g>
		<path id="g0-48_9_" class="st24" d="M467.1,511.4c-10.9,2.1-21.7,4.9-30.8,11.6c-11.9,8.8-11.9,20.4-10.8,26.1
			c1.6,8.2,7.1,17.4,20.8,20.6c10.3,2.5,21,1.2,31.9-0.9c10.2-2,22.4-4.9,31.7-12.5c9.9-8,10.7-18.5,9.4-25.2
			c-1.4-7.4-6.3-17.2-20.4-20.7C488.6,507.9,477.9,509.3,467.1,511.4z M516.3,531.7c1,5.3-0.8,14-13.4,19
			c-7.9,3.1-20.4,5.5-28.5,7.1c-8.7,1.7-17.7,3.4-25.3,3.8c-16.7,0.5-19.9-9.4-20.6-12.8c-0.9-4.5-0.2-14,12.8-19.2
			c7.4-2.8,17.7-4.8,26.3-6.5c10.2-2,19.5-3.8,28.5-4C509.5,518.6,515.1,525.6,516.3,531.7z"/>
	</g>
</g>
<g id="page1_17_">
	<g>
		<path id="g0-48_10_" class="st16" d="M1206.9,572.2c0-10.1-0.6-20.3-5.1-29.7c-5.8-12.2-16.2-14.2-21.5-14.2
			c-7.6,0-16.9,3.3-22.1,15.1c-4.1,8.7-4.7,18.6-4.7,28.8c0,9.5,0.5,20.9,5.7,30.5c5.5,10.3,14.7,12.8,20.9,12.8
			c6.8,0,16.5-2.7,22.1-14.7C1206.3,592.1,1206.9,582.2,1206.9,572.2z M1180.2,612.7c-4.9,0-12.4-3.2-14.7-15.3
			c-1.4-7.6-1.4-19.3-1.4-26.7c0-8.1,0-16.5,1-23.3c2.4-15.1,11.9-16.2,15.1-16.2c4.2,0,12.5,2.3,15,14.8c1.3,7.1,1.3,16.7,1.3,24.7
			c0,9.5,0,18.1-1.4,26.2C1193.1,608.9,1185.9,612.7,1180.2,612.7z"/>
	</g>
</g>
<g id="page1_18_">
	<g>
		<path id="g0-48_11_" class="st25" d="M985.6,532.6c-2.6-6.3-5.6-12.5-10.7-17.3c-6.8-6.1-13.8-4.7-17.1-3.4
			c-4.8,1.9-9.7,6.4-10,15.1c-0.3,6.5,1.8,12.9,4.4,19.2c2.4,5.9,5.7,13,11.4,17.7c6,5,12.5,4.3,16.4,2.7c4.3-1.7,9.6-5.9,10-14.8
			C990.2,545.3,988.1,538.9,985.6,532.6z M979.2,564.8c-3.1,1.3-8.6,1.2-13.1-5.8c-2.8-4.4-5.8-11.7-7.7-16.4
			c-2.1-5.1-4.2-10.3-5.3-14.8c-2.3-10.1,3.3-13.2,5.3-14c2.6-1.1,8.4-1.8,13.1,5.5c2.6,4.1,5.1,10.1,7.1,15.1
			c2.4,5.9,4.6,11.3,5.8,16.8C986.3,559.2,982.7,563.4,979.2,564.8z"/>
	</g>
</g>
<g id="page1_19_">
	<g>
		<path id="g0-48_12_" class="st26" d="M896.8,514.2c-9.5,1.2-19,3-27.3,8.2c-10.7,6.9-11.4,16.9-10.8,21.9
			c0.9,7.1,5.1,15.4,16.7,19c8.7,2.8,18,2.2,27.6,1c8.9-1.1,19.6-2.9,28-8.9c9-6.3,10.3-15.3,9.6-21.1c-0.8-6.4-4.4-15.2-16.4-19
			C915.6,512.5,906.2,513.1,896.8,514.2z M938,534.6c0.6,4.6-1.5,12-12.7,15.6c-7,2.2-17.9,3.6-25,4.4c-7.6,0.9-15.5,1.9-22,1.8
			c-14.4-0.5-16.6-9.3-17-12.3c-0.5-3.9,0.7-12.1,12.2-15.8c6.5-2,15.6-3.1,23.1-4.1c8.9-1.1,17-2.1,24.8-1.8
			C932.9,522.9,937.4,529.3,938,534.6z"/>
	</g>
</g>
<g>
	<path id="g0-49_14_" class="st16" d="M884.2,545.6c3.6-0.3,3.9-0.3,3.6-3.8c-10.4-8.6-11.4-21.8-11.8-26.7l-4.7,0.4
		c0.2,3,0.9,11.9,5.5,19.4l-78,6.1c-5.4,0.4-7.3,0.1-8.3-13.4l-0.4-4.8l-4.7,0.4c0.9,5.2,1.9,18.3,2.4,24.4c0.5,6,1.5,19.1,1.5,24.4
		l4.7-0.4l-0.4-4.8c-1.1-13.6,0.6-14.1,6.1-14.6L884.2,545.6z"/>
</g>
<g id="page1_20_">
	<g>
		<path id="g1-0_8_" class="st27" d="M680.4,303.3c0.7-3,1.4-6.2-2.2-7c-3.6-0.8-4.3,2.4-4.9,5.4l-21.4,96.1c-0.7,3-1.4,6.2,2.2,7
			c3.6,0.8,4.3-2.4,4.9-5.4L680.4,303.3z"/>
	</g>
	<g>
		<path id="g0-49_15_" class="st0" d="M623.9,213.8c-4.3-0.9-4.6-1-5.5,3.1c8.9,13.5,5.4,29.2,4.2,34.9l5.5,1.2
			c0.8-3.6,3.1-14,0.6-24.3l92,20.5c6.4,1.4,8.4,2.4,4.9,18.4l-1.3,5.7l5.5,1.2c0.8-6.3,4.3-21.8,5.9-28.9c1.6-7.1,5-22.6,6.9-28.7
			l-5.5-1.2l-1.3,5.7c-3.6,16-5.6,16.1-12.2,14.6L623.9,213.8z"/>
	</g>
</g>
<g id="page1_21_">
	<g>
		<path id="g0-48_13_" class="st9" d="M699.7,451.8c-3-14.6-7-29.1-16.2-41.3c-12.1-15.8-27.7-15.6-35.3-14.1
			c-11,2.3-23.3,9.8-27.3,28.4c-3.2,13.8-1.2,28.3,1.8,42.9c2.8,13.7,7,30,17.4,42.4c10.9,13.2,25,14.1,34,12.2
			c9.9-2,23-8.8,27.4-27.8C704.8,480.7,702.7,466.2,699.7,451.8z M673.3,518.3c-7.1,1.5-18.9-0.9-25.8-17.7
			c-4.3-10.6-7.8-27.4-10-38.2c-2.4-11.7-4.9-23.8-5.5-34c-1-22.5,12.3-27,16.9-27.9c6-1.3,18.8-0.5,26,16.9
			c4,9.9,6.8,23.8,9.2,35.3c2.8,13.7,5.4,26.2,5.8,38.3C690.8,509,681.5,516.6,673.3,518.3z"/>
	</g>
</g>
<g id="page1_22_">
	<g>
		<path id="g0-48_14_" class="st24" d="M719.1,275.4c0-20-1.2-40-10-58.5c-11.5-24-32-28-42.5-28c-15,0-33.2,6.5-43.5,29.7
			c-8,17.2-9.2,36.7-9.2,56.7c0,18.7,1,41.2,11.2,60.2c10.7,20.2,29,25.2,41.2,25.2c13.5,0,32.5-5.2,43.5-29
			C717.9,314.6,719.1,295.2,719.1,275.4z M666.4,355.4c-9.7,0-24.5-6.2-29-30.2c-2.7-15-2.7-38-2.7-52.7c0-16,0-32.5,2-46
			c4.7-29.7,23.5-32,29.7-32c8.2,0,24.7,4.5,29.5,29.2c2.5,14,2.5,33,2.5,48.7c0,18.7,0,35.7-2.7,51.7
			C691.9,347.9,677.6,355.4,666.4,355.4z"/>
	</g>
</g>
<g id="page1_23_">
	<g>
		<path id="g0-48_15_" class="st28" d="M750.1,330.4c0-20-1.2-40-10-58.5c-11.5-24-32-28-42.5-28c-15,0-33.2,6.5-43.5,29.7
			c-8,17.2-9.2,36.7-9.2,56.7c0,18.7,1,41.2,11.2,60.2c10.7,20.2,29,25.2,41.2,25.2c13.5,0,32.5-5.2,43.5-29
			C748.9,369.6,750.1,350.2,750.1,330.4z M697.4,410.4c-9.7,0-24.5-6.2-29-30.2c-2.7-15-2.7-38-2.7-52.7c0-16,0-32.5,2-46
			c4.7-29.7,23.5-32,29.7-32c8.2,0,24.7,4.5,29.5,29.2c2.5,14,2.5,33,2.5,48.7c0,18.7,0,35.7-2.7,51.7
			C722.9,402.9,708.6,410.4,697.4,410.4z"/>
	</g>
</g>
<g>
	<path id="g0-49_27_" class="st29" d="M620.1,400.6c-5-0.1-5.4-0.1-5.4,4.7c13.1,13,12.9,31.2,12.8,37.9l6.4,0.1
		c0.1-4.1,0.2-16.4-5.1-27.2l107.3,1.3c7.5,0.1,9.9,0.7,9.7,19.4l-0.1,6.6l6.4,0.1c-0.5-7.3-0.3-25.3-0.2-33.6
		c0.1-8.3,0.3-26.3,1-33.6l-6.4-0.1l-0.1,6.6c-0.2,18.6-2.5,19.2-10.2,19.1L620.1,400.6L620.1,400.6z"/>
</g>
<g id="page1_33_">
	<g>
		<path id="g0-48_21_" class="st28" d="M739,472.1c0-20-1.2-40-10-58.5c-11.5-24-32-28-42.5-28c-15,0-33.2,6.5-43.5,29.7
			c-8,17.2-9.2,36.7-9.2,56.7c0,18.7,1,41.2,11.2,60.2c10.7,20.2,29,25.2,41.2,25.2c13.5,0,32.5-5.2,43.5-29
			C737.7,511.4,739,491.9,739,472.1z M686.3,552.1c-9.7,0-24.5-6.2-29-30.2c-2.7-15-2.7-38-2.7-52.7c0-16,0-32.5,2-46
			c4.7-29.7,23.5-32,29.7-32c8.2,0,24.7,4.5,29.5,29.2c2.5,14,2.5,33,2.5,48.7c0,18.7,0,35.7-2.7,51.7
			C711.7,544.6,697.5,552.1,686.3,552.1z"/>
	</g>
</g>
<g>
	<path id="g0-49_16_" class="st28" d="M714.9,244.6c0.7-9.9,0.8-10.7-8.7-11.4c-27.5,24.6-63.7,22-76.9,21l-0.9,12.8
		c8.2,0.6,32.6,2.3,54.8-6.8l-15.3,213.6c-1.1,14.8-2.7,19.7-39.8,17l-13.2-0.9l-0.9,12.8c14.5-0.2,50.4,2.4,66.9,3.6
		c16.5,1.2,52.4,3.8,66.7,6l0.9-12.8l-13.2-0.9c-37.1-2.7-38-7.3-36.9-22.5L714.9,244.6z"/>
</g>
<g id="page1_24_">
	<g>
		<path id="g0-48_16_" class="st24" d="M665.3,226.2c0-9.8-0.6-19.5-4.9-28.6c-5.6-11.7-15.6-13.7-20.8-13.7
			c-7.3,0-16.2,3.2-21.2,14.5c-3.9,8.4-4.5,17.9-4.5,27.7c0,9.2,0.5,20.1,5.5,29.4c5.3,9.9,14.2,12.3,20.1,12.3
			c6.6,0,15.9-2.6,21.2-14.2C664.7,245.4,665.3,235.9,665.3,226.2z M639.6,265.3c-4.8,0-12-3.1-14.2-14.8
			c-1.3-7.3-1.3-18.6-1.3-25.8c0-7.8,0-15.9,1-22.5c2.3-14.5,11.5-15.6,14.5-15.6c4,0,12.1,2.2,14.4,14.3c1.2,6.8,1.2,16.1,1.2,23.8
			c0,9.2,0,17.5-1.3,25.3C652,261.7,645.1,265.3,639.6,265.3z"/>
	</g>
</g>
<g id="page1_32_">
	<g>
		<path id="g0-48_20_" class="st25" d="M701.7,425.3c-2.6-6.3-5.6-12.5-10.7-17.3c-6.8-6.1-13.8-4.7-17.1-3.4
			c-4.8,1.9-9.7,6.4-10,15.1c-0.3,6.5,1.8,12.9,4.4,19.2c2.4,5.9,5.7,13,11.4,17.7c6,5,12.5,4.3,16.4,2.7c4.3-1.7,9.6-5.9,10-14.8
			C706.4,437.9,704.3,431.5,701.7,425.3z M695.4,457.5c-3.1,1.3-8.6,1.2-13.1-5.8c-2.8-4.4-5.8-11.7-7.7-16.4
			c-2.1-5.1-4.2-10.3-5.3-14.8c-2.3-10.1,3.3-13.2,5.3-14c2.6-1.1,8.4-1.8,13.1,5.5c2.6,4.1,5.1,10.1,7.1,15.1
			c2.4,5.9,4.6,11.3,5.8,16.8C702.5,451.8,698.9,456,695.4,457.5z"/>
	</g>
</g>
<g>
	<path id="g0-49_17_" class="st15" d="M751.4,196.2c0-6.6,0-7.2-6.4-7.2c-17.2,17.7-41.5,17.7-50.4,17.7v8.6c5.5,0,21.9,0,36.3-7.2
		v143.4c0,10-0.8,13.3-25.8,13.3h-8.9v8.6c9.7-0.8,33.8-0.8,44.9-0.8s35.2,0,44.9,0.8v-8.6h-8.9c-24.9,0-25.8-3-25.8-13.3
		L751.4,196.2L751.4,196.2z"/>
</g>
<g>
	<path id="g0-49_25_" d="M723.2,404.5c2.1-5.2,2.2-5.7-2.8-7.7c-19,8.7-38.3,1.1-45.3-1.7l-2.7,6.8c4.4,1.7,17.3,6.8,30.9,5.6
		l-44.5,113.2c-3.1,7.9-4.8,10.2-24.4,2.5l-7-2.7l-2.7,6.8c7.9,2.4,26.9,9.8,35.7,13.3c8.7,3.4,27.8,10.9,35.1,14.6l2.7-6.8l-7-2.7
		c-19.7-7.7-19.4-10.4-16.2-18.5L723.2,404.5z"/>
</g>
<g id="page1_25_">
	<g>
		<path id="g1-0_9_" class="st17" d="M719.8,486.4c3.1,0,6.4,0,6.4-3.6s-3.3-3.6-6.4-3.6h-98.4c-3.1,0-6.4,0-6.4,3.6
			s3.3,3.6,6.4,3.6H719.8z"/>
	</g>
	<g>
		<path id="g0-49_18_" class="st18" d="M751.9,415.8c0-4.4,0-4.7-4.2-4.7c-11.3,11.6-27.3,11.6-33.1,11.6v5.6c3.6,0,14.4,0,23.8-4.7
			v94.3c0,6.6-0.5,8.7-16.9,8.7h-5.8v5.6c6.4-0.5,22.2-0.5,29.5-0.5s23.1,0,29.5,0.5v-5.6h-5.8c-16.4,0-16.9-2-16.9-8.7L751.9,415.8
			L751.9,415.8z"/>
	</g>
</g>
<g>
	<path id="g0-49_19_" class="st5" d="M637.7,364c0-7.5,0-8.1-7.2-8.1c-19.3,19.9-46.6,19.9-56.6,19.9v9.6c6.2,0,24.6,0,40.7-8.1
		v161.1c0,11.2-0.9,14.9-28.9,14.9h-10v9.6c10.9-0.9,37.9-0.9,50.4-0.9s39.5,0,50.4,0.9v-9.6h-10c-28,0-28.9-3.4-28.9-14.9
		L637.7,364L637.7,364z"/>
</g>
<g id="page1_30_">
	<g>
		<path id="g0-48_19_" d="M717.5,272.5c-2-16.3-5-32.4-14-46.6c-11.8-18.4-28.9-19.6-37.4-18.5c-12.2,1.5-26.4,8.6-32.4,28.6
			c-4.8,14.8-3.8,30.8-1.8,47.1c1.9,15.3,5,33.5,15.2,47.9c10.8,15.4,26.1,17.6,36.1,16.4c11-1.4,25.9-7.5,32.5-28
			C720.4,304.6,719.5,288.6,717.5,272.5z M682.6,342.9c-7.9,1-20.6-2.6-26.6-21.7c-3.7-11.9-6-30.7-7.5-42.7
			c-1.6-13-3.3-26.5-3-37.6c0.9-24.7,15.9-28.4,21-29c6.7-0.8,20.6,1.2,26.9,20.9c3.4,11.1,5.3,26.6,6.9,39.4
			c1.9,15.3,3.6,29.1,3,42.4C702.6,334.2,691.8,341.8,682.6,342.9z"/>
	</g>
</g>
<g id="page1_26_">
	<g>
		<path id="g0-48_17_" class="st19" d="M746.9,427c0-19.2-1.2-38.4-9.6-56.1c-11-23-30.7-26.9-40.8-26.9c-14.4,0-31.9,6.2-41.7,28.5
			c-7.7,16.5-8.9,35.3-8.9,54.4c0,18,1,39.6,10.8,57.8c10.3,19.4,27.8,24.2,39.6,24.2c13,0,31.2-5,41.7-27.8
			C745.7,464.6,746.9,445.9,746.9,427z M696.3,503.7c-9.4,0-23.5-6-27.8-29c-2.6-14.4-2.6-36.5-2.6-50.6c0-15.3,0-31.2,1.9-44.1
			c4.6-28.5,22.5-30.7,28.5-30.7c7.9,0,23.7,4.3,28.3,28.1c2.4,13.4,2.4,31.7,2.4,46.8c0,18,0,34.3-2.6,49.6
			C720.8,496.5,707.1,503.7,696.3,503.7z"/>
	</g>
</g>
<g id="page1_27_">
	<g>
		<path id="g1-0_10_" class="st10" d="M648.8,407.4c2.9,1.1,5.9,2.3,7.3-1.1s-1.7-4.6-4.6-5.7l-91.7-35.9c-2.9-1.1-5.9-2.3-7.3,1.1
			s1.7,4.6,4.6,5.7L648.8,407.4z"/>
	</g>
	<g>
		<path id="g0-49_20_" class="st30" d="M745.9,365.2c1.6-4.1,1.7-4.4-2.2-5.9c-14.7,6.7-29.7,0.9-35.1-1.2l-2.1,5.3
			c3.4,1.3,13.4,5.2,23.9,4.3l-34.3,87.8c-2.4,6.1-3.7,7.9-18.9,2l-5.4-2.1l-2.1,5.3c6.1,1.8,20.9,7.6,27.7,10.2
			c6.8,2.7,21.5,8.4,27.3,11.2l2.1-5.3l-5.4-2.1c-15.3-6-15-8-12.6-14.3L745.9,365.2z"/>
	</g>
</g>
<g id="page1_34_">
	<g>
		<path id="g1-0_13_" class="st27" d="M685.1,356.4c0.7-3.1,1.4-6.4-2.2-7.3c-3.7-0.8-4.4,2.5-5.1,5.6l-22.1,99.6
			c-0.7,3.1-1.4,6.4,2.2,7.3c3.7,0.8,4.4-2.5,5.1-5.6L685.1,356.4z"/>
	</g>
	<g>
		<path id="g0-49_28_" class="st0" d="M626.5,263.6c-4.4-1-4.8-1.1-5.7,3.2c9.2,14,5.6,30.2,4.3,36.1l5.7,1.3
			c0.8-3.7,3.2-14.5,0.6-25.2l95.3,21.2c6.6,1.5,8.7,2.5,5,19.1l-1.3,5.9l5.7,1.3c0.9-6.6,4.4-22.6,6.1-29.9
			c1.6-7.4,5.2-23.4,7.2-29.7l-5.7-1.3l-1.3,5.9c-3.7,16.6-5.8,16.7-12.6,15.2L626.5,263.6z"/>
	</g>
</g>
<g>
	<path id="g0-49_29_" d="M726.8,359.2c4,0.7,4.3,0.7,5-3.1c-8.8-12.1-6.3-26.6-5.3-31.9l-5.1-0.9c-0.6,3.3-2.3,13,0.5,22.4
		l-85.5-14.9c-5.9-1-7.8-1.9-5.3-16.7l0.9-5.3l-5.1-0.9c-0.5,5.9-3,20.2-4.2,26.8c-1.1,6.6-3.6,21-5.1,26.7l5.1,0.9l0.9-5.3
		c2.6-14.9,4.5-15,10.6-14L726.8,359.2z"/>
</g>
<g>
	<path id="g0-49_21_" class="st29" d="M731.1,203.4c0-6.9,0-7.5-6.6-7.5c-17.9,18.5-43.3,18.5-52.5,18.5v8.9c5.8,0,22.8,0,37.8-7.5
		v149.4c0,10.4-0.9,13.8-26.8,13.8h-9.2v8.9c10.1-0.9,35.2-0.9,46.7-0.9s36.6,0,46.7,0.9v-8.9h-9.2c-26,0-26.8-3.2-26.8-13.8
		L731.1,203.4L731.1,203.4z"/>
</g>
<g id="page1_28_">
	<g>
		<path id="g0-48_18_" class="st22" d="M662.5,221.9c0-7.6-0.5-15.2-3.8-22.3c-4.4-9.1-12.2-10.7-16.2-10.7
			c-5.7,0-12.7,2.5-16.6,11.3c-3,6.6-3.5,14-3.5,21.6c0,7.1,0.4,15.7,4.3,22.9c4.1,7.7,11,9.6,15.7,9.6c5.1,0,12.4-2,16.6-11
			C662,236.9,662.5,229.4,662.5,221.9z M642.4,252.4c-3.7,0-9.3-2.4-11-11.5c-1-5.7-1-14.5-1-20.1c0-6.1,0-12.4,0.8-17.5
			c1.8-11.3,8.9-12.2,11.3-12.2c3.1,0,9.4,1.7,11.2,11.1c1,5.3,1,12.6,1,18.6c0,7.1,0,13.6-1,19.7
			C652.1,249.5,646.7,252.4,642.4,252.4z"/>
	</g>
</g>
<g>
	<path id="g0-49_22_" class="st7" d="M668.2,199c0-5.8,0-6.3-5.6-6.3c-15.1,15.6-36.5,15.6-44.3,15.6v7.5c4.9,0,19.2,0,31.9-6.3
		v126.1c0,8.8-0.7,11.7-22.6,11.7h-7.8v7.5c8.5-0.7,29.7-0.7,39.4-0.7s30.9,0,39.4,0.7v-7.5h-7.8c-21.9,0-22.6-2.7-22.6-11.7
		L668.2,199L668.2,199z"/>
</g>
<g>
	<path id="g0-49_23_" class="st9" d="M745.3,373.2c4.8-0.1,5.2-0.1,5.1-4.7c-13-12-13.4-29.5-13.5-35.8l-6.2,0.1
		c0.1,4,0.3,15.7,5.7,25.9L633.6,361c-7.1,0.2-9.5-0.4-9.9-18.2l-0.1-6.4l-6.2,0.1c0.8,6.9,1.1,24.2,1.3,32.1s0.6,25.2,0.1,32.2
		l6.2-0.1l-0.1-6.4c-0.4-17.9,1.8-18.5,9.1-18.7L745.3,373.2z"/>
</g>
<g id="page1_29_">
	<g>
		<path id="g1-0_11_" class="st29" d="M643.9,359c3.4,0,7,0,7-4s-3.6-4-7-4H535c-3.4,0-7,0-7,4s3.6,4,7,4H643.9z"/>
	</g>
	<g>
		<path id="g0-49_24_" class="st21" d="M727,276.5c0-4.8,0-5.2-4.6-5.2c-12.5,12.9-30.2,12.9-36.6,12.9v6.2c4,0,15.9,0,26.4-5.2
			v104.2c0,7.2-0.6,9.7-18.7,9.7h-6.4v6.2c7-0.6,24.5-0.6,32.6-0.6s25.6,0,32.6,0.6v-6.2h-6.4c-18.1,0-18.7-2.2-18.7-9.7L727,276.5
			L727,276.5z"/>
	</g>
</g>
<g id="page1_2_">
	<g>
		<path id="g1-0_1_" class="st29" d="M385.2,539.3c0.8,0.6,1.6,1.2,2.2,0.3c0.7-0.9-0.1-1.5-0.9-2.1l-24.1-18.4
			c-0.8-0.6-1.6-1.2-2.2-0.3c-0.7,0.9,0.1,1.5,0.9,2.1L385.2,539.3z"/>
	</g>
	<g>
		<path id="g0-49_1_" class="st21" d="M417.5,535.2c0.8-1.1,0.9-1.2-0.1-1.9c-4.9,0.7-8.9-2.3-10.3-3.4l-1.1,1.4
			c0.9,0.7,3.5,2.7,6.7,3.3l-17.7,23.1c-1.2,1.6-1.8,2-5.8-1l-1.4-1.1l-1.1,1.4c1.7,1.1,5.5,4,7.3,5.4c1.8,1.4,5.7,4.3,7.1,5.7
			l1.1-1.4l-1.4-1.1c-4-3.1-3.8-3.7-2.5-5.3L417.5,535.2L417.5,535.2z"/>
	</g>
</g>
<g id="page1_31_">
	<g>
		<path id="g1-0_12_" class="st14" d="M710.7,455.6c0.1-3,0.2-6.3-3.4-6.4c-3.6-0.1-3.7,3.1-3.8,6.1l-3.5,97c-0.1,3-0.2,6.3,3.4,6.4
			s3.7-3.1,3.8-6.1L710.7,455.6z"/>
	</g>
	<g>
		<path id="g0-49_26_" class="st16" d="M631.9,379.2c-4.3-0.2-4.7-0.2-4.8,4c11.1,11.5,10.5,27.3,10.3,33.1l5.6,0.2
			c0.1-3.6,0.5-14.2-3.8-23.7l92.9,3.4c6.5,0.2,8.6,0.8,8,17l-0.2,5.7l5.6,0.2c-0.3-6.3,0.3-21.9,0.5-29.1c0.3-7.2,0.8-22.8,1.6-29
			l-5.6-0.2l-0.2,5.7c-0.6,16.1-2.6,16.6-9.2,16.4L631.9,379.2L631.9,379.2z"/>
	</g>
</g>
<g id="page1_1_">
	<g>
		<path id="g0-48_1_" class="st14" d="M682.3,76c-25.4,0-50.7,1.6-74.2,12.7c-30.4,14.6-35.5,40.6-35.5,53.9
			c0,19,8.2,42.2,37.7,55.2c21.9,10.1,46.6,11.7,72,11.7c23.8,0,52.3-1.3,76.4-14.3c25.7-13.6,32-36.8,32-52.3
			c0-17.1-6.7-41.2-36.8-55.2C732.1,77.6,707.4,76,682.3,76z M783.8,142.9c0,12.4-7.9,31.1-38.4,36.8c-19,3.5-48.2,3.5-66.9,3.5
			c-20.3,0-41.2,0-58.3-2.5c-37.7-6-40.6-29.8-40.6-37.7c0-10.5,5.7-31.4,37.1-37.4c17.8-3.2,41.9-3.2,61.8-3.2
			c23.8,0,45.3,0,65.6,3.5C774.3,110.6,783.8,128.6,783.8,142.9z"/>
	</g>
</g>
</svg>
